<svg width="184" height="29" viewBox="0 0 184 29" fill="none" xmlns="http://www.w3.org/2000/svg">
<path d="M43.4864 28.7934C41.7753 28.7934 40.6494 27.898 40.1069 26.1091L37.1561 16.5249H37.0725L34.0791 26.1091C33.4814 27.8998 32.3822 28.7916 30.7868 28.7916C29.1611 28.7916 28.0352 27.898 27.4073 26.1091L22.5694 12.2693C22.4407 11.8822 22.3687 11.4779 22.356 11.0694C22.356 10.2719 22.6352 9.6104 23.1919 9.0866C23.7486 8.5628 24.437 8.30181 25.2658 8.30181C26.6905 8.30181 27.6457 9.11378 28.1313 10.7396L31.1265 20.8585H31.2101L34.1609 10.7794C34.6731 9.12647 35.6567 8.3 37.1117 8.3C38.5364 8.3 39.5075 9.12647 40.0198 10.7794L43.1413 20.8585H43.2267L46.0921 10.7396C46.5777 9.11378 47.531 8.30181 48.9593 8.30181C49.7864 8.30181 50.4694 8.5628 51.0119 9.0866C51.5543 9.6104 51.8247 10.2701 51.8247 11.0694C51.8247 11.4011 51.7536 11.7998 51.6113 12.2693L46.7804 26.1091C46.1543 27.898 45.0551 28.7916 43.4864 28.7916V28.7934ZM59.1421 6.52923C58.2029 6.52923 57.4026 6.21205 56.7462 5.57769C56.4308 5.2853 56.1799 4.92788 56.0103 4.52915C55.8407 4.13043 55.7563 3.69952 55.7626 3.26501C55.7626 2.35697 56.0899 1.58486 56.7462 0.950507C57.3898 0.322982 58.2515 -0.0185989 59.1421 0.000781903C60.0848 0.000781903 60.8834 0.319774 61.5397 0.950507C62.196 1.58486 62.5233 2.35516 62.5233 3.26501C62.5233 4.17123 62.1925 4.94515 61.5397 5.57769C60.8816 6.21205 60.083 6.52923 59.1421 6.52923ZM59.1421 28.7934C58.2599 28.7934 57.5395 28.5233 56.981 27.9868C56.4243 27.4485 56.145 26.7 56.145 25.734V11.3612C56.145 10.397 56.4243 9.64665 56.981 9.10835C57.5377 8.57186 58.2563 8.30543 59.1421 8.30543C59.9994 8.30543 60.7109 8.57367 61.2818 9.10835C61.851 9.64665 62.1356 10.3952 62.1356 11.3612V25.7358C62.1356 26.7 61.851 27.4503 61.2818 27.9886C60.7091 28.5233 59.9994 28.7934 59.1421 28.7934ZM74.5826 28.7934C72.1316 28.7934 70.4116 28.2496 69.428 27.1622C68.4444 26.0747 67.9518 24.3873 67.9518 22.1018V13.0976C67.9518 12.9326 67.8521 12.8511 67.6529 12.8511H67.4822C66.712 12.8511 66.1197 12.6517 65.7071 12.253C65.2927 11.8524 65.0846 11.3358 65.0846 10.7033C65.0846 10.0689 65.2927 9.5524 65.7071 9.15366C66.1197 8.75492 66.712 8.55374 67.4822 8.55374H67.6529C67.8521 8.55374 67.9518 8.47218 67.9518 8.30725V5.32939C67.9518 4.36516 68.2292 3.61481 68.7877 3.07651C69.3444 2.54003 70.0612 2.2736 70.9488 2.2736C71.8025 2.2736 72.5087 2.54184 73.0654 3.07651C73.6221 3.613 73.9013 4.36335 73.9013 5.32939V8.30543C73.9013 8.46855 73.9849 8.55193 74.1575 8.55193H75.7814C76.5498 8.55193 77.142 8.7513 77.5565 9.15004C77.9709 9.54877 78.179 10.0653 78.179 10.6997C78.179 11.334 77.9709 11.8488 77.5565 12.2493C77.142 12.6481 76.5533 12.8474 75.7814 12.8474H74.1575C73.9849 12.8474 73.9013 12.9308 73.9013 13.0957V21.9351C73.9013 22.5422 74.0205 22.9809 74.2642 23.2582C74.5061 23.5336 74.9134 23.6986 75.4826 23.753C76.4217 23.8635 77.0994 24.1589 77.5138 24.6411C77.9264 25.125 78.1345 25.6814 78.1345 26.3139C78.1345 27.0299 77.8713 27.6207 77.3413 28.0901C76.813 28.5578 75.9806 28.7934 74.8387 28.7934H74.5826ZM90.1529 29C87.9563 29 86.0976 28.5197 84.5715 27.5537C83.0454 26.5894 81.9675 25.1739 81.3414 23.298C81.0992 22.6373 80.9275 21.9518 80.8292 21.2536C80.7049 20.3573 80.6472 19.4527 80.6567 18.5476C80.6567 17.5018 80.7136 16.5992 80.8292 15.8416C80.943 15.084 81.1138 14.4025 81.3414 13.7953C81.9675 11.9231 83.0454 10.5057 84.5715 9.53971C86.0958 8.57549 87.9563 8.09519 90.1529 8.09519C91.6061 8.09519 92.892 8.30181 94.0019 8.71323C95.1136 9.12647 95.9976 9.65208 96.6521 10.2828C97.079 10.6942 97.3867 11.0821 97.5734 11.441C97.7566 11.798 97.8509 12.1841 97.8509 12.5973C97.8509 13.3132 97.6019 13.9041 97.1039 14.3735C96.6058 14.8411 95.9833 15.0767 95.2434 15.0767C94.7863 15.0767 94.3719 14.9734 94.0019 14.765C93.5726 14.5138 93.1713 14.2161 92.8049 13.8769C92.1468 13.2697 91.293 12.9707 90.2365 12.9707C88.6126 12.9707 87.5685 13.6993 87.115 15.1601C86.9727 15.5444 86.8731 16.0011 86.8161 16.5249C86.7592 17.0469 86.7326 17.7229 86.7326 18.5494C86.7326 19.3759 86.761 20.0537 86.8161 20.5757C86.8731 21.0977 86.9727 21.5526 87.115 21.9387C87.5703 23.3995 88.6126 24.1318 90.2365 24.1318C91.2912 24.1318 92.1485 23.8273 92.8049 23.2219C93.2317 22.8377 93.632 22.5422 94.0019 22.3338C94.3719 22.1272 94.7863 22.0239 95.2434 22.0239C95.9851 22.0239 96.6058 22.2577 97.1039 22.7271C97.6019 23.1947 97.8509 23.7874 97.8509 24.5033C97.8509 24.9147 97.7602 25.3008 97.5734 25.6597C97.3867 26.0167 97.0807 26.4028 96.6539 26.816C95.9958 27.4504 95.1136 27.9742 94.0037 28.3856C92.8902 28.797 91.6078 29 90.1529 29ZM117.532 28.7934C116.674 28.7934 115.961 28.5233 115.392 27.9868C114.823 27.4485 114.536 26.7 114.536 25.734V16.6481C114.536 15.548 114.266 14.6635 113.724 14.002C113.183 13.3422 112.37 13.0124 111.287 13.0124C110.204 13.0124 109.396 13.3422 108.87 14.0038C108.341 14.6635 108.078 15.5444 108.078 16.6481V25.7358C108.078 26.7 107.794 27.4503 107.223 27.9886C106.653 28.5269 105.94 28.7952 105.085 28.7952C104.201 28.7952 103.48 28.5269 102.924 27.9886C102.367 27.4503 102.088 26.7018 102.088 25.7358V3.26501C102.088 2.30078 102.367 1.55043 102.924 1.01213C103.48 0.473832 104.199 0.205589 105.085 0.205589C105.94 0.205589 106.653 0.473832 107.223 1.01213C107.792 1.55043 108.078 2.29897 108.078 3.26501V10.2466H108.123C108.606 9.69558 109.284 9.20078 110.152 8.75854C111.022 8.31631 112.126 8.097 113.469 8.097C114.608 8.097 115.621 8.28187 116.505 8.65524C117.389 9.02679 118.131 9.54334 118.731 10.2049C119.328 10.8646 119.778 11.6494 120.077 12.5574C120.376 13.4655 120.527 14.4569 120.527 15.5335V25.7376C120.527 26.7 120.248 27.4503 119.695 27.9886C119.14 28.5269 118.414 28.7934 117.53 28.7934H117.532ZM134.641 29C132.216 29 130.221 28.5034 128.652 27.5138C127.083 26.5206 126.002 25.1177 125.4 23.2998C125.169 22.6655 125.002 21.9767 124.886 21.2336C124.762 20.3453 124.705 19.4485 124.716 18.5512C124.716 17.5036 124.764 16.601 124.867 15.8434C124.966 15.0858 125.13 14.3898 125.36 13.7573C125.986 11.9376 127.076 10.542 128.632 9.56327C130.185 8.58455 132.076 8.097 134.301 8.097C136.61 8.097 138.527 8.58636 140.053 9.56327C141.577 10.5402 142.641 11.9231 143.239 13.7138C143.466 14.4297 143.637 15.1529 143.753 15.8833C143.865 16.6137 143.923 17.4474 143.923 18.3827C143.923 18.9318 143.753 19.3886 143.409 19.7456C143.068 20.1045 142.582 20.2839 141.956 20.2839H130.964C130.793 20.2839 130.708 20.3655 130.708 20.5304C130.708 20.8893 130.779 21.2735 130.921 21.6886C131.206 22.5404 131.72 23.1875 132.464 23.6279C133.203 24.0701 134.118 24.2913 135.203 24.2913C135.914 24.2913 136.599 24.1952 137.255 24.0013C137.891 23.8174 138.507 23.5684 139.094 23.2582C139.808 22.8467 140.492 22.6401 141.149 22.6401C141.775 22.6401 142.296 22.8395 142.71 23.2382C143.123 23.6388 143.331 24.1553 143.331 24.7897C143.331 25.6415 142.933 26.3303 142.132 26.8541C141.115 27.524 140.014 28.0519 138.86 28.4236C137.67 28.8079 136.264 29 134.641 29ZM137.762 16.4397C137.933 16.4397 138.016 16.36 138.016 16.1932C138.016 15.8634 137.997 15.5879 137.952 15.3686C137.91 15.1464 137.86 14.9257 137.803 14.707C137.599 14.0207 137.148 13.4382 136.54 13.0758C135.927 12.7024 135.192 12.5176 134.338 12.5176C133.484 12.5176 132.755 12.7024 132.158 13.0758C131.561 13.4458 131.119 14.0264 130.916 14.707C130.857 14.9245 130.809 15.1474 130.765 15.3667C130.718 15.6395 130.696 15.9163 130.701 16.1932C130.701 16.36 130.784 16.4397 130.957 16.4397H137.762ZM151.278 28.7934C150.394 28.7934 149.674 28.5233 149.117 27.9868C148.56 27.4485 148.281 26.7 148.281 25.734V11.3612C148.281 10.397 148.56 9.64665 149.117 9.10835C149.674 8.57186 150.391 8.30543 151.278 8.30543C151.99 8.30543 152.61 8.49755 153.137 8.88179C153.663 9.26603 154.014 9.81883 154.184 10.5347V10.5764H154.227C154.713 9.91489 155.406 9.33853 156.303 8.84192C157.201 8.34712 158.249 8.09881 159.447 8.09881C159.931 8.09881 160.346 8.13506 160.689 8.20394C161.03 8.27281 161.345 8.37612 161.628 8.51386C162.171 8.76036 162.569 9.09204 162.827 9.50528C163.085 9.92214 163.213 10.3753 163.213 10.8701C163.213 11.7237 162.941 12.4269 162.4 12.9761C161.858 13.5271 161.146 13.8044 160.262 13.8044C159.827 13.7942 159.396 13.7241 158.98 13.596C158.478 13.4559 157.96 13.3864 157.439 13.3894C156.328 13.3894 155.52 13.7537 155.022 14.4841C154.524 15.2145 154.273 16.253 154.273 17.6015V25.7412C154.273 26.7054 153.987 27.4558 153.418 27.9941C152.845 28.5233 152.134 28.7916 151.278 28.7916V28.7934ZM174.717 29C172.293 29 170.297 28.5034 168.728 27.5138C167.161 26.5206 166.078 25.1177 165.477 23.2998C165.24 22.6299 165.068 21.9378 164.963 21.2336C164.84 20.3452 164.782 19.4485 164.792 18.5512C164.792 17.5036 164.84 16.601 164.943 15.8434C165.043 15.0858 165.207 14.3898 165.436 13.7573C166.062 11.9376 167.153 10.542 168.709 9.56327C170.262 8.58455 172.152 8.097 174.377 8.097C176.686 8.097 178.605 8.58636 180.13 9.56327C181.656 10.5402 182.718 11.9231 183.315 13.7138C183.543 14.4297 183.714 15.1529 183.829 15.8833C183.941 16.6137 184 17.4474 184 18.3827C184 18.9318 183.829 19.3886 183.486 19.7456C183.144 20.1045 182.659 20.2839 182.033 20.2839H171.041C170.87 20.2839 170.786 20.3655 170.786 20.5304C170.786 20.8893 170.858 21.2735 171 21.6886C171.284 22.5404 171.797 23.1875 172.54 23.6279C173.282 24.0701 174.192 24.2913 175.279 24.2913C175.991 24.2913 176.676 24.1952 177.332 24.0013C177.99 23.8091 178.602 23.5626 179.173 23.2582C179.884 22.8467 180.569 22.6401 181.225 22.6401C181.851 22.6401 182.373 22.8395 182.787 23.2382C183.2 23.6388 183.408 24.1553 183.408 24.7897C183.408 25.6415 183.009 26.3303 182.209 26.8541C181.192 27.5244 180.091 28.0523 178.936 28.4236C177.746 28.8079 176.345 29 174.717 29ZM177.841 16.4397C178.013 16.4397 178.097 16.36 178.097 16.1932C178.097 15.8634 178.075 15.5879 178.033 15.3686C177.99 15.1464 177.939 14.9257 177.881 14.707C177.677 14.0211 177.227 13.4388 176.62 13.0758C176.007 12.7024 175.27 12.5176 174.418 12.5176C173.565 12.5176 172.834 12.7024 172.236 13.0758C171.64 13.4462 171.198 14.0267 170.994 14.707C170.936 14.9245 170.888 15.1474 170.845 15.3667C170.797 15.6394 170.776 15.9163 170.781 16.1932C170.781 16.36 170.865 16.4397 171.035 16.4397H177.841Z" fill="#333333"/>
<path d="M9.60735 29C7.9812 29 6.52248 28.8138 5.23831 28.4377C3.95591 28.0635 2.88191 27.6144 2.0252 27.0868C1.05628 26.5027 0.570039 25.7268 0.570039 24.7556C0.570039 24.1167 0.812269 23.569 1.30029 23.1127C1.78475 22.6563 2.37073 22.4281 3.05646 22.4281C3.5712 22.4281 4.15718 22.6106 4.8144 22.9703C5.55534 23.3847 6.34081 23.7315 7.16902 24.0108C8.05607 24.2973 8.98196 24.4371 9.91192 24.4252C10.9966 24.4252 11.8017 24.2518 12.3324 23.9068C12.8596 23.5599 13.125 23.109 13.125 22.5559C13.1317 22.3359 13.0818 22.118 12.9802 21.9241C12.8785 21.7302 12.7288 21.5671 12.5462 21.4514C12.1597 21.1885 11.3546 20.9859 10.1274 20.849L7.85831 20.5989C5.60165 20.3506 3.91139 19.6971 2.78217 18.6438C1.65473 17.5904 1.0919 16.1884 1.0919 14.4414C1.0919 12.4442 1.83284 10.8633 3.31828 9.69865C4.80372 8.53213 6.91967 7.95161 9.65901 7.95161C10.831 7.95161 11.9513 8.06297 13.0199 8.28386C14.0356 8.48596 15.0216 8.82158 15.9534 9.28243C17.1254 9.86477 17.7114 10.6297 17.7114 11.5716C17.7114 12.2106 17.4976 12.7528 17.0702 13.1945C16.6427 13.6381 16.0692 13.8609 15.355 13.8609C15.127 13.8609 14.8848 13.8244 14.6247 13.755C14.2864 13.6531 13.9575 13.5211 13.6415 13.3607C12.3177 12.7701 10.8872 12.4721 9.44349 12.4862C8.53157 12.4862 7.86544 12.6323 7.45044 12.9244C7.03722 13.2146 6.82883 13.5962 6.82883 14.069C6.82883 14.5418 7.01406 14.9087 7.3881 15.1716C7.75857 15.4363 8.528 15.6243 9.69997 15.7339L11.9709 15.9821C14.427 16.2596 16.1885 16.9259 17.2607 17.9793C18.333 19.0344 18.8673 20.4072 18.8673 22.0995C18.8673 24.1806 18.0587 25.851 16.4468 27.1142C14.826 28.3684 12.5497 29 9.60735 29Z" fill="#333333"/>
<path fill-rule="evenodd" clip-rule="evenodd" d="M13.5568 15.4862C13.71 15.5188 13.8839 15.5114 14.0321 15.466C14.0831 15.4504 15.1011 15.0164 16.2944 14.5016C17.9325 13.7949 18.4771 13.5553 18.517 13.5238C18.603 13.4559 18.6894 13.3631 18.7405 13.2837C18.799 13.1929 18.8733 12.989 18.8841 12.8896C18.894 12.7993 18.8839 12.6492 18.8616 12.5525C18.8388 12.4539 17.0452 8.17308 16.9677 8.0324C16.7859 7.70236 16.4419 7.50597 16.0869 7.52968C15.8538 7.54523 15.6328 7.65254 15.4817 7.82347C15.3978 7.91834 15.3493 8.00607 15.2969 8.15746C15.2484 8.2977 14.3856 9.45963 14.3913 9.58871C14.3993 9.76725 15.246 8.69205 15.7247 9.83353C15.9771 10.4354 16.1823 10.9309 16.1808 10.9348C16.1793 10.9386 15.328 10.5914 14.289 10.1631C12.2197 9.31007 12.3485 9.35913 12.1721 9.35634C11.8755 9.35164 11.5985 9.49248 11.4005 9.74874C11.3231 9.84887 11.2267 10.0645 11.2024 10.1921C11.1563 10.4336 11.1963 10.6855 11.3117 10.8815C11.3665 10.9744 11.4723 11.0943 11.5599 11.1624C11.6265 11.2143 11.6379 11.2194 12.5245 11.5925C13.018 11.8001 13.8775 12.1585 14.4346 12.3889L15.4474 12.8078L14.3914 13.2634C13.7353 13.5464 13.5301 12.6029 13.4925 12.629C13.3071 12.7576 12.9731 14.0357 12.8934 14.2406C12.8042 14.4701 12.8023 14.6919 12.8878 14.9105C13.0025 15.2037 13.2566 15.4223 13.5568 15.4862Z" fill="#333333"/>
<path fill-rule="evenodd" clip-rule="evenodd" d="M5.65721 21.2429C5.50997 21.1887 5.33677 21.1712 5.18374 21.1949C5.13118 21.2031 4.06377 21.4871 2.81172 21.8262C1.09309 22.2915 0.521056 22.4508 0.477268 22.4763C0.382825 22.5312 0.284529 22.6108 0.223073 22.682C0.152728 22.7636 0.0512321 22.9549 0.0269242 23.0517C0.00484051 23.1397 -0.00575041 23.2898 0.00315175 23.3887C0.0122226 23.4896 1.2024 27.985 1.25986 28.1353C1.39466 28.4881 1.70846 28.7318 2.06319 28.7591C2.29609 28.7771 2.52966 28.7025 2.70268 28.5548C2.79871 28.4729 2.85878 28.393 2.93134 28.2506C2.99857 28.1186 3.40669 27.4915 3.41867 27.3629C3.43524 27.185 3.05485 27.7285 2.73709 26.5298C2.56955 25.8977 2.43413 25.3777 2.43617 25.3741C2.4382 25.3705 3.23363 25.8361 4.20377 26.4089C6.13594 27.5496 6.01519 27.4826 6.18943 27.5106C6.48251 27.5577 6.77603 27.4578 7.0072 27.2324C7.09753 27.1444 7.22243 26.9446 7.26399 26.8217C7.34265 26.5892 7.33756 26.3341 7.25007 26.1235C7.20858 26.0237 7.12016 25.8899 7.0428 25.8098C6.98395 25.749 6.97333 25.7423 6.14651 25.246C5.6863 24.9698 4.88427 24.4919 4.36421 24.1841L3.41867 23.6244L4.52666 23.3244C5.21496 23.1381 5.44657 23.8753 5.48743 23.8548C5.68862 23.7541 6.03662 22.7627 6.14358 22.5711C6.26335 22.3567 6.29555 22.1373 6.24081 21.9086C6.1674 21.602 5.94571 21.3491 5.65721 21.2429Z" fill="#333333"/>
</svg>
